<?xml version="1.0" encoding="UTF-8" standalone="no"?>
<svg
   xmlns:dc="http://purl.org/dc/elements/1.1/"
   xmlns:cc="http://creativecommons.org/ns#"
   xmlns:rdf="http://www.w3.org/1999/02/22-rdf-syntax-ns#"
   xmlns:svg="http://www.w3.org/2000/svg"
   xmlns="http://www.w3.org/2000/svg"
   height="41.933998"
   width="29.605"
   version="1.1"
   x="0px"
   y="0px"
   viewBox="0 0 29.605 41.933998"
   enable-background="new 0 0 100 100"
   xml:space="preserve"
   id="svg10"
   style="fill:#000000"><metadata
     id="metadata16"><rdf:RDF><cc:Work
         rdf:about=""><dc:format>image/svg+xml</dc:format><dc:type
           rdf:resource="http://purl.org/dc/dcmitype/StillImage" /><dc:title></dc:title></cc:Work></rdf:RDF></metadata><defs
     id="defs14" /><path
     style="opacity:1;vector-effect:none;fill:#ffaaaa;fill-opacity:1;stroke:#333333;stroke-width:0.006;stroke-linecap:round;stroke-linejoin:round;stroke-miterlimit:4;stroke-dasharray:none;stroke-dashoffset:0;stroke-opacity:1"
     d="M 1.5769228,0.37372779 C 0.63516671,0.67326332 0.13751268,1.6797871 0.2526191,2.6263023 0.2601831,14.023682 0.2374984,25.423365 0.2639601,36.819305 c 0.008482,1.237598 1.4235205,2.17753 2.5568299,1.667486 0.8620108,-0.37687 1.3885494,-1.233199 2.0878867,-1.835244 2.4475036,-2.447286 4.8950274,-4.894551 7.3425553,-7.341812 5.094111,-0.0076 10.190526,0.01512 15.283199,-0.01134 1.107738,-0.02068 1.939379,-1.104432 1.81571,-2.178032 -0.0076,-8.338889 0.01512,-16.680082 -0.01134,-25.0175329 -0.02068,-1.10773824 -1.104432,-1.93937859 -2.178032,-1.81570966 -8.363858,0.00756 -16.730019,-0.0151205 -25.0924382,0.011341 l -0.491406,0.0752684 z M 25.136,15.791 h -2.998 l -0.001,8.288 h -6.419 v -6.141 h -1.819 v 6.141 H 7.476 v -8.288 l -2.994,0 10.325,-10.529 z"
     id="path825" /><g
     id="g8"
     transform="translate(-35.197,-29.033)"><g
       id="g6"><path
         d="m 57.334,53.112 h -6.419 v -6.141 h -1.819 v 6.141 H 42.673 V 44.824 H 39.679 L 50.004,34.295 60.333,44.824 h -2.998 z m -5.142,-1.276 h 3.866 v -8.288 h 1.234 l -7.289,-7.429 -7.285,7.429 h 1.23 v 8.288 h 3.87 v -6.141 h 4.373 z"
         id="path2" /><path
         d="M 35.197,70.967 V 29.033 H 64.802 V 58.637 H 47.526 Z M 37.325,31.161 V 65.83 l 9.32,-9.32 H 62.674 V 31.161 Z"
         id="path4" /></g></g><path
     id="path832"
     d="m 12.621,16.662 h 4.373 l 0.001,6.141 h 3.866 v -8.288 h 1.234 L 14.806,7.086 7.521,14.515 h 1.23 v 8.288 h 3.87 z"
     style="fill:#ffffff;stroke:none;stroke-width:1px;stroke-linecap:butt;stroke-linejoin:miter;stroke-opacity:1;fill-opacity:1" /></svg>