<?xml version="1.0" encoding="UTF-8" standalone="no"?>
<svg
   xmlns:dc="http://purl.org/dc/elements/1.1/"
   xmlns:cc="http://creativecommons.org/ns#"
   xmlns:rdf="http://www.w3.org/1999/02/22-rdf-syntax-ns#"
   xmlns:svg="http://www.w3.org/2000/svg"
   xmlns="http://www.w3.org/2000/svg"
   height="92.1875"
   width="64.84375"
   version="1.1"
   x="0px"
   y="0px"
   viewBox="0 0 332 472"
   enable-background="new 0 0 512 512"
   xml:space="preserve"
   id="svg14"
   style="fill:#000000"><metadata
     id="metadata20"><rdf:RDF><cc:Work
         rdf:about=""><dc:format>image/svg+xml</dc:format><dc:type
           rdf:resource="http://purl.org/dc/dcmitype/StillImage" /><dc:title></dc:title></cc:Work></rdf:RDF></metadata><defs
     id="defs18" /><path
     style="opacity:1;vector-effect:none;fill:#ffffff;fill-opacity:1;stroke:none;stroke-width:0.03072;stroke-linecap:round;stroke-linejoin:round;stroke-miterlimit:4;stroke-dasharray:none;stroke-dashoffset:0;stroke-opacity:1"
     d="M 166.19071,3.0842634 C 126.05344,2.4281513 86.054067,17.915983 56.655247,45.213373 16.595968,80.564797 -3.6032512,136.7101 4.5415322,189.48879 c 5.9944298,42.39834 29.6954468,81.62597 63.8526518,107.32344 4.720292,4.4943 12.042895,6.27462 14.558674,12.72043 26.066932,48.83959 50.325862,98.64028 76.428962,147.45423 4.51975,6.32705 14.73322,4.47795 17.35857,-2.6082 26.234,-50.13931 51.81984,-100.61462 77.70234,-150.93584 27.86381,-18.2025 49.99551,-44.83942 62.55794,-75.67679 C 337.59998,178.93021 331.8361,120.123 302.11252,76.227871 277.15436,38.368532 236.09369,11.406938 191.13121,4.7037179 182.89753,3.3185295 174.5253,3.0372664 166.19071,3.0842634 Z m 1.55804,76.5637826 c 36.98389,-0.264448 71.80065,26.834544 81.46709,62.409664 9.82885,32.46208 -2.17541,69.76872 -28.47753,90.99056 -16.86982,14.14417 -39.32197,20.84351 -61.20849,19.06289 -39.19727,-1.63976 -73.911721,-34.50213 -79.113257,-73.18052 -5.730529,-35.51234 13.271701,-73.49148 45.499027,-89.652755 12.88828,-6.679823 27.25029,-10.41027 41.83316,-9.629839 z"
     id="path827" /><g
     id="g12"
     transform="translate(-94,-24)"><g
       id="g10"><g
         id="g4"><path
           d="m 260,286 c -52.935,0 -96,-43.065 -96,-96 0,-52.935 43.065,-96 96,-96 52.935,0 96,43.065 96,96 0,52.935 -43.065,96 -96,96 z m 0,-180 c -46.318,0 -84,37.682 -84,84 0,46.318 37.682,84 84,84 46.317,0 84,-37.682 84,-84 0,-46.318 -37.683,-84 -84,-84 z"
           id="path2" /></g><g
         id="g8"><path
           d="m 261.325,496 v 0 c -2.251,0 -4.312,-1.26 -5.339,-3.262 L 173.33,331.595 C 149.802,317.162 130.093,296.961 116.258,273.077 101.697,247.94 94,219.212 94,190 94,98.467 168.467,24 260,24 c 91.532,0 166,74.467 166,166 0,56.366 -28.115,108.221 -75.29,139.044 L 266.663,492.74 c -1.027,2.002 -3.089,3.26 -5.338,3.26 z M 260,36 c -84.916,0 -154,69.084 -154,154 0,53.836 28.73,104.491 74.978,132.198 0.962,0.577 1.743,1.411 2.255,2.409 l 78.095,152.251 79.439,-154.722 c 0.484,-0.944 1.211,-1.742 2.104,-2.314 C 387.41,291.33 414,242.798 414,190 414,105.084 344.916,36 260,36 Z"
           id="path6" /></g></g></g></svg>